<svg viewBox="0 0 29 30" fill="white" xmlns="http://www.w3.org/2000/svg">
<g clip-path="url(#clip0_3_122)">
<path d="M0 14.5C0 15.3612 0.720606 16.0642 1.56424 16.0642H12.9357V27.4357C12.9357 28.2794 13.6388 29 14.5 29C15.3612 29 16.0818 28.2794 16.0818 27.4357V16.0642H27.4357C28.2794 16.0642 29 15.3612 29 14.5C29 13.6388 28.2794 12.9182 27.4357 12.9182H16.0818V1.56424C16.0818 0.720606 15.3612 0 14.5 0C13.6388 0 12.9357 0.720606 12.9357 1.56424V12.9182H1.56424C0.720606 12.9182 0 13.6388 0 14.5Z"  fill-opacity="0.85"/>
</g>
<defs>
<clipPath id="clip0_3_122">
<rect width="29" height="29.0175" fill="white"/>
</clipPath>
</defs>
</svg>
