<svg viewBox="0 0 29 30" fill="white" xmlns="http://www.w3.org/2000/svg">
<g clip-path="url(#clip0_3_74)">
<path d="M14.5 29C22.4324 29 29 22.4181 29 14.5C29 6.56764 22.4181 0 14.4858 0C6.56764 0 0 6.56764 0 14.5C0 22.4181 6.58185 29 14.5 29ZM12.9078 21.4514C12.4245 21.4514 12.0265 21.2524 11.6568 20.7549L8.08871 16.3764C7.87549 16.0922 7.74755 15.7793 7.74755 15.4524C7.74755 14.8128 8.24508 14.2867 8.8848 14.2867C9.29705 14.2867 9.60979 14.4147 9.96518 14.8838L12.851 18.6083L18.921 8.85636C19.1912 8.4299 19.5608 8.20245 19.9304 8.20245C20.5559 8.20245 21.1387 8.6289 21.1387 9.29705C21.1387 9.60979 20.9538 9.93675 20.7832 10.2353L14.1019 20.7549C13.8034 21.224 13.3912 21.4514 12.9078 21.4514Z" fill="white" fill-opacity="0.85"/>
</g>
<defs>
<clipPath id="clip0_3_74">
<rect width="29" height="29.0141" fill="white"/>
</clipPath>
</defs>
</svg>
