<svg  viewBox="0 0 33 29" fill="white" xmlns="http://www.w3.org/2000/svg">
<path d="M4.55315 26.3337H28.4469C29.9017 26.3337 30.9881 25.9769 31.7063 25.2633C32.4245 24.5497 32.7836 23.4794 32.7836 22.0522V5.18848C32.7836 3.7613 32.4245 2.69092 31.7063 1.97733C30.9881 1.26375 29.9017 0.906952 28.4469 0.906952H4.55315C3.10755 0.906952 2.02336 1.26375 1.30056 1.97733C0.577768 2.69092 0.21637 3.7613 0.21637 5.18848V22.0522C0.21637 23.4794 0.577768 24.5497 1.30056 25.2633C2.02336 25.9769 3.10755 26.3337 4.55315 26.3337ZM4.58077 24.1101C3.8902 24.1101 3.36076 23.9282 2.99246 23.5645C2.62416 23.2008 2.44 22.6599 2.44 21.9417V5.29897C2.44 4.58078 2.62416 4.03983 2.99246 3.67613C3.36076 3.31243 3.8902 3.13058 4.58077 3.13058H28.4192C29.1006 3.13058 29.6277 3.31243 30.0006 3.67613C30.3735 4.03983 30.56 4.58078 30.56 5.29897V21.9417C30.56 22.6599 30.3735 23.2008 30.0006 23.5645C29.6277 23.9282 29.1006 24.1101 28.4192 24.1101H4.58077ZM10.7406 24.5382H12.909V2.71624H10.7406V24.5382ZM8.08886 8.25461C8.29143 8.25461 8.47328 8.17404 8.63441 8.01291C8.79554 7.85178 8.87611 7.67453 8.87611 7.48117C8.87611 7.2694 8.79554 7.08755 8.63441 6.93562C8.47328 6.7837 8.29143 6.70773 8.08886 6.70773H5.11941C4.91685 6.70773 4.7373 6.7837 4.58077 6.93562C4.42424 7.08755 4.34598 7.2694 4.34598 7.48117C4.34598 7.67453 4.42424 7.85178 4.58077 8.01291C4.7373 8.17404 4.91685 8.25461 5.11941 8.25461H8.08886ZM8.08886 11.8318C8.29143 11.8318 8.47328 11.7535 8.63441 11.597C8.79554 11.4404 8.87611 11.2563 8.87611 11.0445C8.87611 10.8419 8.79554 10.6647 8.63441 10.5128C8.47328 10.3608 8.29143 10.2849 8.08886 10.2849H5.11941C4.91685 10.2849 4.7373 10.3608 4.58077 10.5128C4.42424 10.6647 4.34598 10.8419 4.34598 11.0445C4.34598 11.2563 4.42424 11.4404 4.58077 11.597C4.7373 11.7535 4.91685 11.8318 5.11941 11.8318H8.08886ZM8.08886 15.3951C8.29143 15.3951 8.47328 15.3191 8.63441 15.1672C8.79554 15.0153 8.87611 14.838 8.87611 14.6355C8.87611 14.4237 8.79554 14.2418 8.63441 14.0899C8.47328 13.938 8.29143 13.862 8.08886 13.862H5.11941C4.91685 13.862 4.7373 13.938 4.58077 14.0899C4.42424 14.2418 4.34598 14.4237 4.34598 14.6355C4.34598 14.838 4.42424 15.0153 4.58077 15.1672C4.7373 15.3191 4.91685 15.3951 5.11941 15.3951H8.08886Z"  fill-opacity="0.85"/>
</svg>
