<svg viewBox="0 0 29 22" fill="none" xmlns="http://www.w3.org/2000/svg">
<g clip-path="url(#clip0_3_104)">
<path d="M8.17471 2.99355H27.8343C28.482 2.99355 29 2.48982 29 1.84218C29 1.18014 28.482 0.676421 27.8343 0.676421H8.17471C7.51267 0.676421 7.00895 1.18014 7.00895 1.84218C7.00895 2.48982 7.51267 2.99355 8.17471 2.99355ZM8.17471 11.7008H27.8343C28.482 11.7008 29 11.1826 29 10.535C29 9.88735 28.482 9.38364 27.8343 9.38364H8.17471C7.51267 9.38364 7.00895 9.88735 7.00895 10.535C7.00895 11.1826 7.51267 11.7008 8.17471 11.7008ZM8.17471 20.3936H27.8343C28.482 20.3936 29 19.8899 29 19.2421C29 18.5801 28.482 18.0764 27.8343 18.0764H8.17471C7.51267 18.0764 7.00895 18.5801 7.00895 19.2421C7.00895 19.8899 7.51267 20.3936 8.17471 20.3936ZM1.8134 3.64119C2.82084 3.64119 3.62681 2.83524 3.62681 1.84218C3.62681 0.834734 2.82084 0.0287781 1.8134 0.0287781C0.805957 0.0287781 0 0.834734 0 1.84218C0 2.83524 0.805957 3.64119 1.8134 3.64119ZM1.8134 12.3484C2.82084 12.3484 3.62681 11.5424 3.62681 10.535C3.62681 9.52755 2.82084 8.7216 1.8134 8.7216C0.805957 8.7216 0 9.52755 0 10.535C0 11.5424 0.805957 12.3484 1.8134 12.3484ZM1.8134 21.0556C2.82084 21.0556 3.62681 20.2353 3.62681 19.2421C3.62681 18.2347 2.82084 17.4288 1.8134 17.4288C0.805957 17.4288 0 18.2347 0 19.2421C0 20.2353 0.805957 21.0556 1.8134 21.0556Z" fill="white" fill-opacity="0.85"/>
</g>
<defs>
<clipPath id="clip0_3_104">
<rect width="29" height="21.0556" fill="white"/>
</clipPath>
</defs>
</svg>
