<svg  viewBox="0 0 29 27" fill="white" xmlns="http://www.w3.org/2000/svg">
<g clip-path="url(#clip0_3_82)">
<path d="M5.57493 11.1887C8.61465 11.1887 11.1499 8.66638 11.1499 5.62668C11.1499 2.57404 8.61465 0.0388031 5.57493 0.0388031C2.52231 0.0388031 0 2.57404 0 5.62668C0 8.66638 2.53524 11.1887 5.57493 11.1887ZM4.91526 8.61464C4.64363 8.61464 4.46254 8.47235 4.26852 8.25246L2.81981 6.50625C2.69046 6.36397 2.65165 6.20875 2.65165 6.00179C2.65165 5.62668 2.93623 5.32918 3.28547 5.32918C3.53123 5.32918 3.71231 5.43265 3.88047 5.65255L4.8894 6.93311L7.19181 3.23373C7.34703 3.00089 7.54105 2.87155 7.77387 2.87155C8.13605 2.87155 8.44648 3.15611 8.44648 3.47948C8.44648 3.66057 8.39475 3.81579 8.27833 4.00981L5.57493 8.25246C5.43265 8.48529 5.19983 8.61464 4.91526 8.61464ZM5.57493 26.1673C8.61465 26.1673 11.1499 23.6321 11.1499 20.5924C11.1499 17.5268 8.61465 15.0044 5.57493 15.0044C2.52231 15.0044 0 17.5397 0 20.5924C0 23.6321 2.53524 26.1673 5.57493 26.1673ZM5.57493 24.2788C3.57003 24.2788 1.88849 22.5844 1.88849 20.5924C1.88849 18.5874 3.58297 16.893 5.57493 16.893C7.56691 16.893 9.26139 18.5874 9.26139 20.5924C9.26139 22.5844 7.56691 24.2788 5.57493 24.2788ZM15.0174 6.60973H28.0041C28.5473 6.60973 29 6.18288 29 5.62668C29 5.08341 28.5473 4.65655 28.0041 4.65655H15.0174C14.4741 4.65655 14.0344 5.08341 14.0344 5.62668C14.0344 6.18288 14.4741 6.60973 15.0174 6.60973ZM15.0174 21.5625H28.0041C28.5473 21.5625 29 21.1356 29 20.5924C29 20.0362 28.5473 19.6093 28.0041 19.6093H15.0174C14.4741 19.6093 14.0344 20.0362 14.0344 20.5924C14.0344 21.1356 14.4741 21.5625 15.0174 21.5625Z" fill="white" fill-opacity="0.85"/>
</g>
<defs>
<clipPath id="clip0_3_82">
<rect width="29" height="26.1674" fill="white"/>
</clipPath>
</defs>
</svg>
