<svg  viewBox="0 0 29 27"  fill="white" xmlns="http://www.w3.org/2000/svg">
<g clip-path="url(#clip0_5_146)">
<path d="M4.56899 26.8173H24.4455C27.4867 26.8173 29 25.304 29 22.3066V4.53989C29 1.5424 27.4867 0.0290985 24.4455 0.0290985H4.56899C1.52785 0.0290985 0 1.52784 0 4.53989V22.3066C0 25.3186 1.52785 26.8173 4.56899 26.8173ZM4.35072 24.4747C3.05569 24.4747 2.3427 23.7908 2.3427 22.4375V8.716C2.3427 7.37731 3.05569 6.67887 4.35072 6.67887H24.6347C25.9297 6.67887 26.6573 7.37731 26.6573 8.716V22.4375C26.6573 23.7908 25.9297 24.4747 24.6347 24.4747H4.35072ZM6.88258 12.0918H22.161C22.6703 12.0918 23.0632 11.6844 23.0632 11.1751C23.0632 10.6804 22.6703 10.302 22.161 10.302H6.88258C6.3442 10.302 5.96588 10.6804 5.96588 11.1751C5.96588 11.6844 6.3442 12.0918 6.88258 12.0918ZM6.88258 16.4717H22.161C22.6703 16.4717 23.0632 16.0933 23.0632 15.5987C23.0632 15.0748 22.6703 14.6819 22.161 14.6819H6.88258C6.3442 14.6819 5.96588 15.0748 5.96588 15.5987C5.96588 16.0933 6.3442 16.4717 6.88258 16.4717ZM6.88258 20.8514H16.588C17.0973 20.8514 17.4902 20.4731 17.4902 19.9784C17.4902 19.4691 17.0973 19.0618 16.588 19.0618H6.88258C6.3442 19.0618 5.96588 19.4691 5.96588 19.9784C5.96588 20.4731 6.3442 20.8514 6.88258 20.8514Z" fill="white" fill-opacity="0.85"/>
</g>
<defs>
<clipPath id="clip0_5_146">
<rect width="29" height="26.8173" fill="white"/>
</clipPath>
</defs>
</svg>
