<svg  viewBox="0 0 29 30" fill="white" xmlns="http://www.w3.org/2000/svg">
<path d="M14.5 29C22.4324 29 29 22.4181 29 14.5C29 6.56764 22.4181 0 14.4858 0C6.56764 0 0 6.56764 0 14.5C0 22.4181 6.58185 29 14.5 29ZM9.72352 20.4706C9.0696 20.4706 8.55784 19.9446 8.55784 19.2907C8.55784 18.9779 8.67156 18.6793 8.89901 18.4661L12.8367 14.5142L8.89901 10.5765C8.67156 10.349 8.55784 10.0647 8.55784 9.75195C8.55784 9.08381 9.0696 8.58627 9.72352 8.58627C10.0505 8.58627 10.3064 8.69999 10.5338 8.91323L14.5 12.8652L18.4946 8.89901C18.7363 8.65735 18.9922 8.55784 19.3048 8.55784C19.9587 8.55784 20.4848 9.0696 20.4848 9.72352C20.4848 10.0505 20.3853 10.3064 20.1294 10.5622L16.1775 14.5142L20.1152 18.452C20.3569 18.6652 20.4706 18.9636 20.4706 19.2907C20.4706 19.9446 19.9446 20.4706 19.2765 20.4706C18.9495 20.4706 18.651 20.3569 18.4377 20.1294L14.5 16.1775L10.5765 20.1294C10.349 20.3569 10.0505 20.4706 9.72352 20.4706Z" fill="white" fill-opacity="0.85"/>
</svg>
