<svg  viewBox="0 0 29 35" fill="white" xmlns="http://www.w3.org/2000/svg">
<g clip-path="url(#clip0_7_154)">
<path d="M5.99151 18.891C6.36086 18.85 6.71651 18.8227 7.07218 18.8227C7.44152 18.8227 7.79718 18.85 8.19388 18.891V7.03115C8.19388 5.67689 8.91888 4.89718 10.3415 4.89718H16.4288V12.8448C16.4288 14.5684 17.2907 15.4166 19.0006 15.4166H26.7977V27.7005C26.7977 29.0685 26.0727 29.8209 24.6501 29.8209H15.6081C15.4302 30.6005 15.1293 31.3529 14.7326 32.0231H24.7595C27.5911 32.0231 29 30.5868 29 27.7416V15.3208C29 13.5561 28.7948 12.7901 27.7005 11.6684L20.1632 3.99435C19.1235 2.92736 18.2618 2.69482 16.7298 2.69482H10.2321C7.41416 2.69482 5.99151 4.14482 5.99151 6.9901V18.891ZM18.4943 12.5849V5.32124L26.3736 13.351H19.2467C18.6995 13.351 18.4943 13.1321 18.4943 12.5849ZM6.49765 34.7316H7.67407C8.11181 34.7316 8.42642 34.4854 8.53586 34.0476L8.85048 32.7071C9.04199 32.6523 9.26086 32.5567 9.45237 32.4609L10.6425 33.1722C10.9981 33.4048 11.3948 33.4048 11.7095 33.0765L12.5165 32.2556C12.8038 31.941 12.8448 31.5581 12.5986 31.1614L11.901 29.9713C12.0241 29.7934 12.0788 29.6156 12.1472 29.4242L13.4878 29.1094C13.9255 29 14.1855 28.6718 14.1855 28.2477V27.0849C14.1855 26.6746 13.8981 26.3736 13.4878 26.2642L12.1609 25.9359C12.0788 25.7033 11.983 25.5392 11.9146 25.375L12.6533 24.1576C12.8722 23.8019 12.8448 23.3642 12.5439 23.0906L11.7095 22.2835C11.4085 21.9689 10.9981 21.9006 10.6561 22.1331L9.45237 22.8854C9.23351 22.7623 9.04199 22.7075 8.85048 22.6392L8.53586 21.2712C8.42642 20.8609 8.11181 20.5873 7.67407 20.5873H6.49765C6.0736 20.5873 5.73161 20.8745 5.64953 21.2712L5.33491 22.6254C5.10237 22.7075 4.91086 22.7623 4.70567 22.8854L3.52925 22.1331C3.20095 21.9141 2.77689 21.9689 2.46226 22.2835L1.66888 23.0906C1.36793 23.3779 1.28585 23.8019 1.50472 24.1576L2.25708 25.375C2.18868 25.5392 2.10661 25.7306 2.02453 25.9359L0.683963 26.2642C0.273585 26.3736 0 26.6882 0 27.0849V28.2477C0 28.6718 0.273585 29 0.683963 29.1094L2.03821 29.4242C2.12028 29.6156 2.18868 29.7934 2.27075 29.9713L1.57312 31.1751C1.35425 31.5581 1.38161 31.9685 1.68255 32.2556L2.46226 33.0765C2.77689 33.4048 3.18727 33.3911 3.54293 33.1722L4.7467 32.4609C4.96557 32.584 5.15708 32.6523 5.33491 32.7071L5.64953 34.0476C5.73161 34.4581 6.0736 34.7316 6.49765 34.7316ZM7.09954 29.944C5.81368 29.944 4.8151 28.9317 4.8151 27.6732C4.8151 26.4284 5.81368 25.3887 7.09954 25.375C8.33068 25.3614 9.37029 26.4284 9.37029 27.6732C9.37029 28.9317 8.33068 29.944 7.09954 29.944Z" fill="white" fill-opacity="0.85"/>
</g>
<defs>
<clipPath id="clip0_7_154">
<rect width="29" height="34.7316" fill="white"/>
</clipPath>
</defs>
</svg>
